<svg width="51" height="86" viewBox="0 0 51 86" fill="none" xmlns="http://www.w3.org/2000/svg">
    <path d="M41.1923 0H9.80769C4.39385 0 0 4.37818 0 9.77273V76.2273C0 81.6218 4.39385 86 9.80769 86H41.1923C46.6062 86 51 81.6218 51 76.2273V9.77273C51 4.37818 46.6062 0 41.1923 0ZM25.5 82.0909C22.2438 82.0909 19.6154 79.4718 19.6154 76.2273C19.6154 72.9827 22.2438 70.3636 25.5 70.3636C28.7562 70.3636 31.3846 72.9827 31.3846 76.2273C31.3846 79.4718 28.7562 82.0909 25.5 82.0909ZM43.1538 66.4545H7.84615V11.7273H43.1538V66.4545Z"/>
</svg>
